<?xml version="1.0" encoding="UTF-8"?>
<svg xmlns="http://www.w3.org/2000/svg" width="16" height="16" version="1.1" viewBox="0 0 16 16">
  <path style="fill: #1e49c4;" d="M3.5,1.1H1.4c-.2,0-.3.1-.3.3v2.8c0,.2.1.3.3.3h3.7c.2,0,.4-.3.3-.5l-1.5-2.8c0-.1-.2-.2-.3-.2Z"/>
  <path style="fill: #1e49c4;" d="M14.5,6.2H1.4c-.2,0-.3.1-.3.3v4.8c0,1.9,1.6,3.5,3.5,3.5h6.7c1.9,0,3.5-1.6,3.5-3.5v-4.8c0-.2-.1-.3-.3-.3ZM10.3,11.2l-3.5,2.1c-.5.3-1.2,0-1.2-.7v-4.2c0-.6.6-1,1.2-.7l3.5,2c.5.3.5,1,0,1.3Z"/>
  <path style="fill: #1e49c4;" d="M8.4,1.1h-2.5c-.2,0-.4.3-.3.5l1.5,2.8c0,.1.2.2.3.2h2.5c.2,0,.4-.3.3-.5l-1.5-2.8c0-.1-.2-.2-.3-.2Z"/>
  <path style="fill: #1e49c4;" d="M14.5,1.1h-3.8c-.2,0-.4.3-.3.5l1.5,2.8c0,.1.2.2.3.2h2.2c.2,0,.3-.1.3-.3V1.4c0-.2-.1-.3-.3-.3Z"/>
</svg>