<?xml version="1.0" encoding="UTF-8"?>
<svg width="16" height="16" version="1.1" viewBox="0 0 16 16" xmlns="http://www.w3.org/2000/svg">
 <path d="m1.4 1.6c-0.2 0-0.3 0.1-0.3 0.3v2.8c0 0.2 0.1 0.3 0.3 0.3h3.7c0.2 0 0.4-0.3 0.3-0.5l-1.5-2.8c-0.083554-0.083554-0.10155-0.099886-0.23487-0.10259-0.75499 0.0064532-1.5101 0.0025889-2.2651 0.0025889z" fill="#1e49c4"/>
 <path d="m14.5 6.2h-13.1c-0.2 0-0.3 0.1-0.3 0.3v4.8c0 1.9 1.6 3.5 3.5 3.5h6.7c1.9 0 3.5-1.6 3.5-3.5v-4.8c0-0.2-0.1-0.3-0.3-0.3zm-4.2 5-3.5 2.1c-0.5 0.3-1.2 0-1.2-0.7v-4.2c0-0.6 0.6-1 1.2-0.7l3.5 2c0.5 0.3 0.51525 1.1919 0.01525 1.4919z" fill="#1e49c4"/>
 <g fill="#1e49c4">
  <path d="M8.4,1.6h-2.5c-.2,0-.4.3-.3.5l1.5,2.8c0,.1.2.2.3.2h2.5c.2,0,.4-.3.3-.5l-1.5-2.8c0-.1-.2-.2-.3-.2Z"/>
  <path d="M14.5,1.6h-3.8c-.2,0-.4.3-.3.5l1.5,2.8c0,.1.2.2.3.2h2.2c.2,0,.3-.1.3-.3V1.9c0-.2-.1-.3-.3-.3Z"/>
 </g>
</svg>
